<?xml version="1.0" encoding="utf-8"?>
<!-- Generator: Adobe Illustrator 25.0.0, SVG Export Plug-In . SVG Version: 6.00 Build 0)  -->
<svg version="1.1" xmlns="http://www.w3.org/2000/svg" xmlns:xlink="http://www.w3.org/1999/xlink" x="0px" y="0px"
	 viewBox="0 0 1600 900" style="enable-background:new 0 0 1600 900;" xml:space="preserve">
<style type="text/css">
	.st0{fill:#F4D03E;}
	.st1{fill:#BEA330;}
	.st2{fill:#DAB92C;}
	.st3{opacity:0.986;fill:#EBEBEB;fill-opacity:0;enable-background:new    ;}
	.st4{fill:#EBECEC;}
	.st5{fill:#FFD938;}
	.st6{fill:#FCFFFC;}
</style>
<g id="BG">
	<rect class="st0" width="1600" height="900"/>
</g>
<g id="shadow_1_">
	<polygon id="shadow" class="st1" points="609.7,612.9 911,900 1576.3,900 929.2,253.1 	"/>
</g>
<g id="logo">
	<g>
		<g>
			<g>
				<polygon class="st2" points="577,253 609.7,612.9 752.8,653.3 896.8,612.6 929.2,253.1 				"/>
				<path class="st2" d="M739.9,566.2l-103.3-27.9l-0.1-42.2l0.1,0c0,0,0.1,0,0.2,0l0.2,0l67.5,18.4c0,0,0.1,0,0.1,0l0.4-180.6
					l0-2.9v-1h35V566.2z"/>
				<polygon class="st2" points="870.3,593.3 754.5,625 754.5,624.6 753.4,285 897.6,285 				"/>
			</g>
		</g>
		<path id="path5159" class="st3" d="M728.4,562.8c-4.5-1.4-26.9-7.4-49.7-13.6L637.3,538v-20.7c0-20.3,0-20.7,2.1-20.1
			c1.1,0.4,16.2,4.5,33.5,9.3l31.5,8.7l0.3-92.1l0.3-92.1h34.3v117.1c0,93-0.3,117.1-1.2,117.1C737.3,565.1,732.9,564,728.4,562.8
			L728.4,562.8z"/>
		<path id="path5157" class="st4" d="M636.6,538.3l-0.1-42.2c0,0,43.4,12.2,68,18.5l0.4-184.4h35v235.9L636.6,538.3L636.6,538.3z"/>
		<polygon class="st5" points="897.6,284.8 897.6,285 870.3,593.1 754.5,624.6 753.4,624.9 753.4,284.8 		"/>
		<polygon class="st6" points="802.3,372.5 802.3,434 872.4,426.2 862.9,541.5 767.9,566.2 767.2,524.4 835.9,506.2 836.9,472.1 
			768.8,483.8 767.2,330.7 880,330.2 877,372.2 		"/>
	</g>
</g>
</svg>
